<svg width="27" height="27" viewBox="0 0 27 27" fill="none" xmlns="http://www.w3.org/2000/svg">
<g filter="url(#filter0_di_401_5)">
<path fill-rule="evenodd" clip-rule="evenodd" d="M11.2166 22.6785C11.5701 22.6802 11.8216 22.606 11.9712 22.4559C12.1394 22.2871 12.2244 22.0237 12.2261 21.6656L12.2731 11.7152L13.905 14.8042C14.0709 15.1254 14.2652 15.3619 14.4877 15.5137C14.7289 15.6467 15.0263 15.7141 15.3798 15.7158L16.496 15.7211C16.8495 15.7227 17.1382 15.6581 17.3621 15.5273C17.6047 15.3776 17.8104 15.143 17.9794 14.8235L19.6404 11.75L19.5934 21.7004C19.5917 22.0585 19.6649 22.3227 19.8129 22.493C19.9797 22.6445 20.2398 22.7212 20.5933 22.7228L24.8909 22.7431C25.2444 22.7448 25.4959 22.6706 25.6454 22.5205C25.8137 22.3517 25.8986 22.0883 25.9003 21.7302L25.9869 3.4124C25.9886 3.05434 25.906 2.79953 25.7393 2.64797C25.5913 2.47766 25.3405 2.39167 24.987 2.39L20.4661 2.36864C20.1685 2.36723 19.917 2.43201 19.7117 2.56296C19.5251 2.694 19.3473 2.90988 19.1784 3.21062L16.673 7.80661C16.5792 7.97578 16.4949 8.09788 16.4201 8.17291C16.3639 8.24803 16.28 8.28532 16.1684 8.2848L15.9172 8.28361C15.8056 8.28308 15.7128 8.24495 15.6387 8.16922C15.5832 8.09358 15.5094 7.97073 15.4172 7.80068L12.9273 3.18109C12.7613 2.87877 12.5763 2.66117 12.3723 2.52828C12.1869 2.39549 11.9453 2.32839 11.6476 2.32698L7.15467 2.30575C6.80119 2.30408 6.54032 2.38766 6.37208 2.55648C6.22253 2.70654 6.14691 2.9606 6.14522 3.31866L6.05869 21.6365C6.05699 21.9945 6.13017 22.2587 6.2782 22.429C6.44493 22.5806 6.70503 22.6572 7.05852 22.6589L11.2166 22.6785Z" fill="#AA3746" fill-opacity="0.8"/>
<path fill-rule="evenodd" clip-rule="evenodd" d="M12.1095 22.711L8.4672 25.7468C8.39243 25.8219 8.27119 25.8873 8.10348 25.943C7.95438 25.9988 7.7868 26.0263 7.60076 26.0254L3.44267 26.0058C2.99616 26.0037 2.67107 25.8985 2.4674 25.6902C2.26373 25.482 2.16297 25.1517 2.1651 24.6994L2.25164 6.38158C2.2528 6.13658 2.28168 5.92942 2.3383 5.76007C2.41352 5.59081 2.51651 5.44996 2.64727 5.3375L6.26179 2.27327C6.35517 2.19832 6.47636 2.14236 6.62538 2.10537C6.79308 2.04963 6.96996 2.02219 7.15601 2.02307L11.649 2.0443C12.0025 2.04597 12.2905 2.12271 12.513 2.27453C12.7542 2.42644 12.9762 2.6819 13.1792 3.04094L15.0601 6.58343L15.3134 6.13233C15.3885 6.00076 15.4635 5.87861 15.5384 5.76589C15.6321 5.63441 15.7256 5.5312 15.819 5.45626L19.4333 2.4203C19.5827 2.30793 19.7319 2.22383 19.881 2.16799C20.0488 2.11225 20.2442 2.0849 20.4675 2.08596L24.9884 2.10731C25.4349 2.10942 25.76 2.21461 25.9636 2.42288C26.1673 2.63115 26.2681 2.96143 26.2659 3.41372L26.1794 21.7315C26.1782 21.9765 26.14 22.1836 26.0648 22.3529C26.0082 22.5223 25.9145 22.6632 25.7838 22.7756L22.1415 25.8114C22.0667 25.8865 21.9455 25.9519 21.7777 26.0076C21.6286 26.0634 21.4611 26.0909 21.275 26.09L16.9774 26.0697C16.5123 26.0675 16.1779 25.9623 15.9742 25.754C15.7892 25.5459 15.6977 25.2156 15.6998 24.7633L15.7351 17.3005L14.0821 18.6779C13.9326 18.8091 13.7554 18.9119 13.5504 18.9863C13.364 19.042 13.1407 19.0692 12.8802 19.068L12.5174 19.0663L12.5051 21.6669C12.504 21.9119 12.4658 22.1191 12.3906 22.2883C12.3339 22.4577 12.2403 22.5986 12.1095 22.711ZM11.9712 22.4559C11.8216 22.606 11.5701 22.6802 11.2166 22.6785L7.05852 22.6589C6.70503 22.6572 6.44493 22.5806 6.2782 22.429C6.13017 22.2587 6.05699 21.9945 6.05869 21.6365L6.14522 3.31866C6.14691 2.9606 6.22253 2.70654 6.37208 2.55648C6.54032 2.38766 6.80119 2.30408 7.15467 2.30575L11.6476 2.32698C11.9453 2.32839 12.1869 2.39549 12.3723 2.52828C12.5763 2.66117 12.7613 2.87877 12.9273 3.18109L15.4172 7.80068C15.5094 7.97073 15.5832 8.09358 15.6387 8.16922C15.7128 8.24495 15.8056 8.28308 15.9172 8.28361L16.1684 8.2848C16.28 8.28532 16.3639 8.24803 16.4201 8.17291C16.4949 8.09788 16.5792 7.97578 16.673 7.80661L19.1784 3.21062C19.3473 2.90988 19.5251 2.694 19.7117 2.56296C19.917 2.43201 20.1685 2.36723 20.4661 2.36864L24.987 2.39C25.3405 2.39167 25.5913 2.47766 25.7393 2.64797C25.906 2.79953 25.9886 3.05434 25.9869 3.4124L25.9003 21.7302C25.8986 22.0883 25.8137 22.3517 25.6454 22.5205C25.4959 22.6706 25.2444 22.7448 24.8909 22.7431L20.5933 22.7228C20.2398 22.7212 19.9797 22.6445 19.8129 22.493C19.6649 22.3227 19.5917 22.0585 19.5934 21.7004L19.6404 11.75L17.9794 14.8235C17.8104 15.143 17.6047 15.3776 17.3621 15.5273C17.1382 15.6581 16.8495 15.7227 16.496 15.7211L15.3798 15.7158C15.0263 15.7141 14.7289 15.6467 14.4877 15.5137C14.2652 15.3619 14.0709 15.1254 13.905 14.8042L12.2731 11.7152L12.2261 21.6656C12.2244 22.0237 12.1394 22.2871 11.9712 22.4559Z" fill="#25273C" fill-opacity="0.54"/>
<path d="M12.3173 11.6918L12.2231 11.715L12.1761 21.6654C12.1744 22.0168 12.0909 22.2649 11.9357 22.4206C11.8003 22.5566 11.5654 22.6302 11.2168 22.6285L7.05875 22.6089C6.71255 22.6073 6.46775 22.5324 6.31401 22.394C6.17871 22.2368 6.10703 21.9877 6.10869 21.6367L6.19522 3.3189C6.19689 2.96547 6.27188 2.72786 6.4075 2.59177C6.56257 2.43617 6.8079 2.35412 7.15443 2.35575L11.6474 2.37698C11.9379 2.37835 12.1684 2.44377 12.3432 2.56893L12.3431 2.56897L12.345 2.57018C12.5398 2.69707 12.7199 2.90716 12.8834 3.20502C12.8835 3.20506 12.8835 3.20511 12.8835 3.20516L15.3732 7.8244L15.3732 7.82451C15.4656 7.99493 15.5408 8.12026 15.5984 8.19878L15.598 8.19908L15.6029 8.20418C15.6869 8.29003 15.7928 8.33302 15.917 8.33361L16.1681 8.3348C16.2909 8.33538 16.3904 8.29406 16.4579 8.20574C16.537 8.12564 16.6231 7.99959 16.7167 7.83086L16.7169 7.83054L19.222 3.2351C19.2221 3.235 19.2222 3.23489 19.2222 3.23479C19.3888 2.9382 19.5617 2.72965 19.7396 2.60451C19.9349 2.48017 20.1762 2.41727 20.4659 2.41864L24.9868 2.44C25.334 2.44164 25.5672 2.52621 25.7016 2.68077L25.7013 2.681L25.7057 2.68497C25.8571 2.82261 25.9385 3.06008 25.9369 3.41216L25.8503 21.73C25.8487 22.0814 25.7652 22.3295 25.61 22.4852C25.4745 22.6212 25.2397 22.6948 24.8911 22.6931L20.5935 22.6728C20.2473 22.6712 20.0025 22.5963 19.8487 22.458C19.7134 22.3007 19.6418 22.0517 19.6434 21.7007L19.6904 11.7502L19.5964 11.7262L17.9354 14.7997L17.9352 14.8001C17.7694 15.1136 17.5693 15.3405 17.3364 15.4844C17.1226 15.6092 16.8437 15.6727 16.4963 15.6711L15.38 15.6658C15.0336 15.6641 14.7457 15.5983 14.5139 15.471C14.301 15.3252 14.1123 15.0965 13.9494 14.7813L13.9492 14.7809L12.3173 11.6918ZM14.4595 15.555L14.4594 15.5552L14.4636 15.5575C14.7139 15.6956 15.02 15.7641 15.3795 15.7658L16.4958 15.7711C16.8551 15.7728 17.1534 15.7072 17.3873 15.5704L17.3873 15.5704L17.3883 15.5698C17.6402 15.4145 17.8515 15.1723 18.0235 14.847C18.0235 14.847 18.0235 14.8469 18.0236 14.8468L19.5895 11.9494L19.5434 21.7002C19.5417 22.0636 19.6157 22.3423 19.7752 22.5258L19.7749 22.526L19.7793 22.53C19.9592 22.6935 20.2339 22.7711 20.593 22.7728L24.8906 22.7931C25.249 22.7948 25.5172 22.72 25.6808 22.5558C25.8621 22.3739 25.9486 22.0952 25.9503 21.7305L26.0369 3.41264C26.0386 3.05004 25.9556 2.77862 25.7751 2.61296C25.6132 2.42841 25.3456 2.34169 24.9873 2.34L20.4664 2.31864C20.1613 2.3172 19.8999 2.38364 19.6848 2.5208L19.6848 2.52076L19.683 2.52203C19.4879 2.65901 19.3057 2.88192 19.1348 3.18614L19.1345 3.18669L16.6292 7.78236C16.6292 7.78242 16.6292 7.78247 16.6292 7.78253C16.5361 7.95031 16.4545 8.06755 16.3847 8.13762L16.3843 8.13726L16.38 8.14297C16.3352 8.2029 16.2678 8.23527 16.1686 8.2348L15.9175 8.23361C15.8197 8.23315 15.7406 8.20071 15.6769 8.13674C15.6237 8.06369 15.5519 7.9443 15.4611 7.77688C15.4611 7.77687 15.4611 7.77686 15.4611 7.77684L12.9714 3.15737L12.9712 3.15702C12.803 2.85076 12.6133 2.6259 12.4005 2.48699C12.2045 2.34699 11.9523 2.27842 11.6479 2.27698L7.15491 2.25575C6.79448 2.25405 6.51808 2.33915 6.33667 2.52118C6.17319 2.68522 6.09694 2.95573 6.09522 3.31843L6.00869 21.6362C6.00697 21.9997 6.08094 22.2783 6.24046 22.4618L6.2402 22.4621L6.24457 22.466C6.42442 22.6295 6.69916 22.7072 7.05828 22.7089L11.2164 22.7285C11.5748 22.7302 11.8429 22.6554 12.0066 22.4912C12.1879 22.3093 12.2743 22.0306 12.2761 21.6659L12.3221 11.9151L13.8606 14.8272C13.8606 14.8272 13.8607 14.8273 13.8607 14.8274C14.0292 15.1534 14.2282 15.3972 14.4595 15.555ZM15.1037 6.60791L15.3569 6.1571C15.3569 6.15704 15.3569 6.15699 15.357 6.15693C15.4313 6.02656 15.5055 5.90568 15.5796 5.79424C15.6713 5.66562 15.7616 5.5664 15.8502 5.49526L15.8503 5.49526L15.8511 5.49455L19.4645 2.45945C19.61 2.3501 19.7544 2.26891 19.8977 2.21514C20.0589 2.1617 20.2485 2.13492 20.4672 2.13596L24.9881 2.15731C25.4283 2.15939 25.7375 2.26318 25.9279 2.45784C26.1184 2.65264 26.218 2.96727 26.2159 3.41348L26.1294 21.7313C26.1283 21.9715 26.0908 22.1714 26.0191 22.3326L26.0189 22.3325L26.0174 22.3371C25.9636 22.498 25.875 22.6311 25.7515 22.7374C25.7514 22.7375 25.7513 22.7376 25.7512 22.7377L22.1095 25.773L22.1093 25.7729L22.1061 25.7762C22.0393 25.8431 21.9266 25.9054 21.762 25.9602L21.762 25.9601L21.7602 25.9608C21.6177 26.0142 21.4562 26.0409 21.2753 26.04L16.9776 26.0197C16.5189 26.0176 16.2009 25.9137 16.0108 25.7199C15.8382 25.5251 15.7477 25.2101 15.7498 24.7636L15.7851 17.3008L15.7856 17.1934L15.7031 17.2621L14.05 18.6395L14.05 18.6395L14.0491 18.6403C13.905 18.7668 13.7338 18.8664 13.5347 18.9388C13.3546 18.9924 13.1369 19.0192 12.8804 19.018L12.5176 19.0163L12.4676 19.016L12.4674 19.066L12.4551 21.6667C12.454 21.9069 12.4165 22.1068 12.3449 22.268L12.3447 22.2679L12.3431 22.2725C12.2893 22.4334 12.2007 22.5665 12.0772 22.6728C12.0771 22.6729 12.077 22.673 12.0769 22.6731L8.43519 25.7084L8.43505 25.7083L8.43179 25.7116C8.36503 25.7785 8.25235 25.8408 8.08771 25.8956L8.0877 25.8955L8.08595 25.8962C7.9434 25.9496 7.78198 25.9763 7.60099 25.9754L3.4429 25.9558C3.00277 25.9537 2.69351 25.8499 2.50315 25.6553C2.31265 25.4605 2.21299 25.1458 2.2151 24.6996L2.30164 6.38181C2.30277 6.14142 2.33102 5.94062 2.38496 5.77819C2.45728 5.61623 2.55562 5.48231 2.67974 5.37552C2.67978 5.37549 2.67983 5.37545 2.67988 5.37541L6.2936 2.31185C6.37991 2.24273 6.49381 2.18954 6.63742 2.1539L6.63746 2.15404L6.64115 2.15282C6.80343 2.09888 6.97487 2.07222 7.15577 2.07307L11.6487 2.0943C11.9953 2.09593 12.2728 2.17115 12.4848 2.31583L12.4848 2.31586L12.4864 2.31683C12.718 2.46272 12.9348 2.71045 13.1353 3.06499L15.016 6.60688L15.0589 6.68774L15.1037 6.60791Z" stroke="white" stroke-width="0.1"/>
<path d="M12.3173 11.6918L12.2231 11.715L12.1761 21.6654C12.1744 22.0168 12.0909 22.2649 11.9357 22.4206C11.8003 22.5566 11.5654 22.6302 11.2168 22.6285L7.05875 22.6089C6.71255 22.6073 6.46775 22.5324 6.31401 22.394C6.17871 22.2368 6.10703 21.9877 6.10869 21.6367L6.19522 3.3189C6.19689 2.96547 6.27188 2.72786 6.4075 2.59177C6.56257 2.43617 6.8079 2.35412 7.15443 2.35575L11.6474 2.37698C11.9379 2.37835 12.1684 2.44377 12.3432 2.56893L12.3431 2.56897L12.345 2.57018C12.5398 2.69707 12.7199 2.90716 12.8834 3.20502C12.8835 3.20506 12.8835 3.20511 12.8835 3.20516L15.3732 7.8244L15.3732 7.82451C15.4656 7.99493 15.5408 8.12026 15.5984 8.19878L15.598 8.19908L15.6029 8.20418C15.6869 8.29003 15.7928 8.33302 15.917 8.33361L16.1681 8.3348C16.2909 8.33538 16.3904 8.29406 16.4579 8.20574C16.537 8.12564 16.6231 7.99959 16.7167 7.83086L16.7169 7.83054L19.222 3.2351C19.2221 3.235 19.2222 3.23489 19.2222 3.23479C19.3888 2.9382 19.5617 2.72965 19.7396 2.60451C19.9349 2.48017 20.1762 2.41727 20.4659 2.41864L24.9868 2.44C25.334 2.44164 25.5672 2.52621 25.7016 2.68077L25.7013 2.681L25.7057 2.68497C25.8571 2.82261 25.9385 3.06008 25.9369 3.41216L25.8503 21.73C25.8487 22.0814 25.7652 22.3295 25.61 22.4852C25.4745 22.6212 25.2397 22.6948 24.8911 22.6931L20.5935 22.6728C20.2473 22.6712 20.0025 22.5963 19.8487 22.458C19.7134 22.3007 19.6418 22.0517 19.6434 21.7007L19.6904 11.7502L19.5964 11.7262L17.9354 14.7997L17.9352 14.8001C17.7694 15.1136 17.5693 15.3405 17.3364 15.4844C17.1226 15.6092 16.8437 15.6727 16.4963 15.6711L15.38 15.6658C15.0336 15.6641 14.7457 15.5983 14.5139 15.471C14.301 15.3252 14.1123 15.0965 13.9494 14.7813L13.9492 14.7809L12.3173 11.6918ZM14.4595 15.555L14.4594 15.5552L14.4636 15.5575C14.7139 15.6956 15.02 15.7641 15.3795 15.7658L16.4958 15.7711C16.8551 15.7728 17.1534 15.7072 17.3873 15.5704L17.3873 15.5704L17.3883 15.5698C17.6402 15.4145 17.8515 15.1723 18.0235 14.847C18.0235 14.847 18.0235 14.8469 18.0236 14.8468L19.5895 11.9494L19.5434 21.7002C19.5417 22.0636 19.6157 22.3423 19.7752 22.5258L19.7749 22.526L19.7793 22.53C19.9592 22.6935 20.2339 22.7711 20.593 22.7728L24.8906 22.7931C25.249 22.7948 25.5172 22.72 25.6808 22.5558C25.8621 22.3739 25.9486 22.0952 25.9503 21.7305L26.0369 3.41264C26.0386 3.05004 25.9556 2.77862 25.7751 2.61296C25.6132 2.42841 25.3456 2.34169 24.9873 2.34L20.4664 2.31864C20.1613 2.3172 19.8999 2.38364 19.6848 2.5208L19.6848 2.52076L19.683 2.52203C19.4879 2.65901 19.3057 2.88192 19.1348 3.18614L19.1345 3.18669L16.6292 7.78236C16.6292 7.78242 16.6292 7.78247 16.6292 7.78253C16.5361 7.95031 16.4545 8.06755 16.3847 8.13762L16.3843 8.13726L16.38 8.14297C16.3352 8.2029 16.2678 8.23527 16.1686 8.2348L15.9175 8.23361C15.8197 8.23315 15.7406 8.20071 15.6769 8.13674C15.6237 8.06369 15.5519 7.9443 15.4611 7.77688C15.4611 7.77687 15.4611 7.77686 15.4611 7.77684L12.9714 3.15737L12.9712 3.15702C12.803 2.85076 12.6133 2.6259 12.4005 2.48699C12.2045 2.34699 11.9523 2.27842 11.6479 2.27698L7.15491 2.25575C6.79448 2.25405 6.51808 2.33915 6.33667 2.52118C6.17319 2.68522 6.09694 2.95573 6.09522 3.31843L6.00869 21.6362C6.00697 21.9997 6.08094 22.2783 6.24046 22.4618L6.2402 22.4621L6.24457 22.466C6.42442 22.6295 6.69916 22.7072 7.05828 22.7089L11.2164 22.7285C11.5748 22.7302 11.8429 22.6554 12.0066 22.4912C12.1879 22.3093 12.2743 22.0306 12.2761 21.6659L12.3221 11.9151L13.8606 14.8272C13.8606 14.8272 13.8607 14.8273 13.8607 14.8274C14.0292 15.1534 14.2282 15.3972 14.4595 15.555ZM15.1037 6.60791L15.3569 6.1571C15.3569 6.15704 15.3569 6.15699 15.357 6.15693C15.4313 6.02656 15.5055 5.90568 15.5796 5.79424C15.6713 5.66562 15.7616 5.5664 15.8502 5.49526L15.8503 5.49526L15.8511 5.49455L19.4645 2.45945C19.61 2.3501 19.7544 2.26891 19.8977 2.21514C20.0589 2.1617 20.2485 2.13492 20.4672 2.13596L24.9881 2.15731C25.4283 2.15939 25.7375 2.26318 25.9279 2.45784C26.1184 2.65264 26.218 2.96727 26.2159 3.41348L26.1294 21.7313C26.1283 21.9715 26.0908 22.1714 26.0191 22.3326L26.0189 22.3325L26.0174 22.3371C25.9636 22.498 25.875 22.6311 25.7515 22.7374C25.7514 22.7375 25.7513 22.7376 25.7512 22.7377L22.1095 25.773L22.1093 25.7729L22.1061 25.7762C22.0393 25.8431 21.9266 25.9054 21.762 25.9602L21.762 25.9601L21.7602 25.9608C21.6177 26.0142 21.4562 26.0409 21.2753 26.04L16.9776 26.0197C16.5189 26.0176 16.2009 25.9137 16.0108 25.7199C15.8382 25.5251 15.7477 25.2101 15.7498 24.7636L15.7851 17.3008L15.7856 17.1934L15.7031 17.2621L14.05 18.6395L14.05 18.6395L14.0491 18.6403C13.905 18.7668 13.7338 18.8664 13.5347 18.9388C13.3546 18.9924 13.1369 19.0192 12.8804 19.018L12.5176 19.0163L12.4676 19.016L12.4674 19.066L12.4551 21.6667C12.454 21.9069 12.4165 22.1068 12.3449 22.268L12.3447 22.2679L12.3431 22.2725C12.2893 22.4334 12.2007 22.5665 12.0772 22.6728C12.0771 22.6729 12.077 22.673 12.0769 22.6731L8.43519 25.7084L8.43505 25.7083L8.43179 25.7116C8.36503 25.7785 8.25235 25.8408 8.08771 25.8956L8.0877 25.8955L8.08595 25.8962C7.9434 25.9496 7.78198 25.9763 7.60099 25.9754L3.4429 25.9558C3.00277 25.9537 2.69351 25.8499 2.50315 25.6553C2.31265 25.4605 2.21299 25.1458 2.2151 24.6996L2.30164 6.38181C2.30277 6.14142 2.33102 5.94062 2.38496 5.77819C2.45728 5.61623 2.55562 5.48231 2.67974 5.37552C2.67978 5.37549 2.67983 5.37545 2.67988 5.37541L6.2936 2.31185C6.37991 2.24273 6.49381 2.18954 6.63742 2.1539L6.63746 2.15404L6.64115 2.15282C6.80343 2.09888 6.97487 2.07222 7.15577 2.07307L11.6487 2.0943C11.9953 2.09593 12.2728 2.17115 12.4848 2.31583L12.4848 2.31586L12.4864 2.31683C12.718 2.46272 12.9348 2.71045 13.1353 3.06499L15.016 6.60688L15.0589 6.68774L15.1037 6.60791Z" stroke="black" stroke-opacity="0.2" stroke-width="0.1"/>
</g>
<defs>
<filter id="filter0_di_401_5" x="0.665039" y="0.523438" width="26.601" height="26.5664" filterUnits="userSpaceOnUse" color-interpolation-filters="sRGB">
<feFlood flood-opacity="0" result="BackgroundImageFix"/>
<feColorMatrix in="SourceAlpha" type="matrix" values="0 0 0 0 0 0 0 0 0 0 0 0 0 0 0 0 0 0 127 0" result="hardAlpha"/>
<feOffset dx="-0.5" dy="-0.5"/>
<feGaussianBlur stdDeviation="0.5"/>
<feComposite in2="hardAlpha" operator="out"/>
<feColorMatrix type="matrix" values="0 0 0 0 0 0 0 0 0 0 0 0 0 0 0 0 0 0 0.25 0"/>
<feBlend mode="normal" in2="BackgroundImageFix" result="effect1_dropShadow_401_5"/>
<feBlend mode="normal" in="SourceGraphic" in2="effect1_dropShadow_401_5" result="shape"/>
<feColorMatrix in="SourceAlpha" type="matrix" values="0 0 0 0 0 0 0 0 0 0 0 0 0 0 0 0 0 0 127 0" result="hardAlpha"/>
<feOffset dx="1" dy="1"/>
<feGaussianBlur stdDeviation="5"/>
<feComposite in2="hardAlpha" operator="arithmetic" k2="-1" k3="1"/>
<feColorMatrix type="matrix" values="0 0 0 0 0 0 0 0 0 0 0 0 0 0 0 0 0 0 0.5 0"/>
<feBlend mode="normal" in2="shape" result="effect2_innerShadow_401_5"/>
</filter>
</defs>
</svg>
