<svg width="1269" height="1026" viewBox="0 0 1269 1026" fill="none" xmlns="http://www.w3.org/2000/svg">
<g filter="url(#filter0_di_21_52)">
<mask id="path-1-outside-1_21_52" maskUnits="userSpaceOnUse" x="2" y="2" width="1261" height="1018" fill="black">
<rect fill="white" x="2" y="2" width="1261" height="1018"/>
<path fill-rule="evenodd" clip-rule="evenodd" d="M524.684 875.623L335.277 1004.1C331.391 1007.28 325.078 1010.05 316.336 1012.43C308.566 1014.81 299.824 1016 290.11 1016H73.0209C49.7093 1016 32.7112 1011.64 22.0267 1002.91C11.3422 994.19 6 980.311 6 961.277V190.393C6 180.083 7.45698 171.359 10.3709 164.221C14.2562 157.084 19.5984 151.135 26.3977 146.377L214.348 16.7067C219.204 13.5344 225.518 11.1551 233.288 9.56886C242.03 7.18962 251.258 6 260.971 6H495.544C513.999 6 529.055 9.17234 540.711 15.517C553.338 21.8618 564.993 32.5685 575.678 47.6372L674.752 196.342L687.865 177.307C691.75 171.756 695.636 166.601 699.521 161.842C704.378 156.291 709.234 151.929 714.091 148.756L902.041 20.2756C909.811 15.5171 917.582 11.9481 925.352 9.56886C934.094 7.18962 944.293 6 955.949 6H1191.98C1215.29 6 1232.29 10.362 1242.97 19.086C1253.66 27.81 1259 41.6891 1259 60.7232V831.607C1259 841.917 1257.06 850.641 1253.17 857.779C1250.26 864.916 1245.4 870.865 1238.6 875.623L1049.2 1004.1C1045.31 1007.28 1039 1010.05 1030.25 1012.43C1022.48 1014.81 1013.74 1016 1004.03 1016H779.655C755.372 1016 737.888 1011.64 727.204 1002.91C717.49 994.19 712.634 980.311 712.634 961.277V647.213L626.672 705.505C618.902 711.057 609.674 715.419 598.99 718.591C589.276 720.971 577.621 722.16 564.022 722.16H545.081V831.607C545.081 841.917 543.139 850.641 539.253 857.779C536.34 864.916 531.483 870.865 524.684 875.623ZM517.399 864.916C509.628 871.261 496.516 874.433 478.06 874.433H260.971C242.516 874.433 228.917 871.261 220.176 864.916C212.405 857.779 208.52 846.675 208.52 831.607V60.7232C208.52 45.6545 212.405 34.9478 220.176 28.6031C228.917 21.4652 242.516 17.8963 260.971 17.8963H495.544C511.085 17.8963 523.712 20.6721 533.426 26.2237C544.11 31.7754 553.823 40.8959 562.565 53.5853L693.693 247.496C698.55 254.634 702.435 259.789 705.349 262.961C709.234 266.133 714.091 267.72 719.919 267.72H733.031C738.859 267.72 743.23 266.133 746.144 262.961C750.03 259.789 754.4 254.634 759.257 247.496L888.928 53.5853C897.67 40.8959 906.897 31.7754 916.61 26.2237C927.295 20.6721 940.408 17.8963 955.949 17.8963H1191.98C1210.43 17.8963 1223.55 21.4652 1231.32 28.6031C1240.06 34.9478 1244.43 45.6545 1244.43 60.7232V831.607C1244.43 846.675 1240.06 857.779 1231.32 864.916C1223.55 871.261 1210.43 874.433 1191.98 874.433H967.605C949.15 874.433 935.551 871.261 926.809 864.916C919.039 857.779 915.154 846.675 915.154 831.607V412.855L829.192 542.525C820.45 556.008 809.766 565.921 797.138 572.266C785.483 577.818 770.427 580.594 751.972 580.594H693.693C675.238 580.594 659.697 577.818 647.07 572.266C635.414 565.921 625.215 556.008 616.473 542.525L530.512 412.855V831.607C530.512 846.675 526.141 857.779 517.399 864.916Z"/>
</mask>
<path d="M517.399 864.916L519.929 868.015L519.929 868.015L517.399 864.916ZM530.512 412.855L533.846 410.645L526.512 399.582V412.855H530.512ZM616.473 542.525L619.83 540.349L619.818 540.332L619.807 540.315L616.473 542.525ZM647.07 572.266L645.157 575.779L645.305 575.86L645.46 575.928L647.07 572.266ZM797.138 572.266L798.858 575.877L798.897 575.859L798.934 575.84L797.138 572.266ZM829.192 542.525L825.858 540.315L825.847 540.332L825.836 540.349L829.192 542.525ZM915.154 412.855H919.154V399.582L911.82 410.645L915.154 412.855ZM926.809 864.916L924.103 867.862L924.273 868.018L924.46 868.154L926.809 864.916ZM1231.32 864.916L1233.85 868.015L1233.85 868.015L1231.32 864.916ZM1231.32 28.6031L1228.61 31.5489L1228.78 31.7049L1228.97 31.8403L1231.32 28.6031ZM916.61 26.2237L914.766 22.6743L914.695 22.7112L914.626 22.751L916.61 26.2237ZM888.928 53.5853L885.634 51.3161L885.618 51.3388L885.603 51.3618L888.928 53.5853ZM759.257 247.496L762.564 249.746L762.573 249.733L762.582 249.719L759.257 247.496ZM746.144 262.961L743.614 259.863L743.392 260.044L743.198 260.255L746.144 262.961ZM705.349 262.961L702.403 265.667L702.597 265.878L702.819 266.06L705.349 262.961ZM693.693 247.496L690.379 249.737L690.386 249.746L693.693 247.496ZM562.565 53.5853L565.879 51.3447L565.869 51.3303L565.859 51.3161L562.565 53.5853ZM533.426 26.2237L531.441 29.6965L531.51 29.7363L531.581 29.7732L533.426 26.2237ZM220.176 28.6031L217.646 25.5047L217.646 25.5047L220.176 28.6031ZM220.176 864.916L217.47 867.862L217.639 868.018L217.826 868.154L220.176 864.916ZM524.684 875.623L526.929 878.933L526.953 878.917L526.977 878.9L524.684 875.623ZM335.277 1004.1L333.031 1000.79L332.884 1000.89L332.747 1001.01L335.277 1004.1ZM316.336 1012.43L315.286 1008.57L315.225 1008.59L315.165 1008.61L316.336 1012.43ZM10.3709 164.221L6.85768 162.309L6.75154 162.504L6.66764 162.71L10.3709 164.221ZM26.3977 146.377L24.1262 143.084L24.1151 143.092L24.1041 143.1L26.3977 146.377ZM214.348 16.7067L212.16 13.3579L212.118 13.3855L212.076 13.4143L214.348 16.7067ZM233.288 9.56886L234.088 13.488L234.215 13.4623L234.339 13.4285L233.288 9.56886ZM540.711 15.517L538.798 19.0303L538.856 19.0617L538.915 19.0912L540.711 15.517ZM575.678 47.6372L579.007 45.4193L578.975 45.371L578.941 45.3235L575.678 47.6372ZM674.752 196.342L671.423 198.559L674.697 203.473L678.046 198.611L674.752 196.342ZM687.865 177.307L684.588 175.014L684.579 175.026L684.571 175.038L687.865 177.307ZM699.521 161.842L696.51 159.208L696.466 159.26L696.423 159.312L699.521 161.842ZM714.091 148.756L716.278 152.105L716.313 152.082L716.348 152.058L714.091 148.756ZM902.041 20.2756L899.952 16.8644L899.866 16.9168L899.783 16.9734L902.041 20.2756ZM925.352 9.56886L924.302 5.70925L924.241 5.72575L924.181 5.74413L925.352 9.56886ZM1242.97 19.086L1245.5 15.9876L1245.5 15.9876L1242.97 19.086ZM1253.17 857.779L1249.66 855.866L1249.55 856.061L1249.47 856.267L1253.17 857.779ZM1238.6 875.623L1240.85 878.933L1240.87 878.917L1240.9 878.9L1238.6 875.623ZM1049.2 1004.1L1046.95 1000.79L1046.8 1000.89L1046.67 1001.01L1049.2 1004.1ZM1030.25 1012.43L1029.2 1008.57L1029.14 1008.59L1029.08 1008.61L1030.25 1012.43ZM727.204 1002.91L724.531 1005.89L724.601 1005.95L724.674 1006.01L727.204 1002.91ZM712.634 647.213H716.634V639.668L710.389 643.903L712.634 647.213ZM626.672 705.505L624.427 702.195L624.387 702.222L624.347 702.251L626.672 705.505ZM598.99 718.591L599.941 722.476L600.035 722.453L600.128 722.426L598.99 718.591ZM545.081 722.16V718.16H541.081V722.16H545.081ZM539.253 857.779L535.74 855.866L535.634 856.061L535.55 856.267L539.253 857.779ZM478.06 878.433C496.757 878.433 511.052 875.263 519.929 868.015L514.869 861.818C508.205 867.26 496.274 870.433 478.06 870.433V878.433ZM519.929 868.015C529.889 859.882 534.512 847.447 534.512 831.607H526.512C526.512 845.904 522.392 855.675 514.869 861.818L519.929 868.015ZM534.512 831.607V412.855H526.512V831.607H534.512ZM527.178 415.065L613.139 544.735L619.807 540.315L533.846 410.645L527.178 415.065ZM613.117 544.701C622.145 558.626 632.805 569.056 645.157 575.779L648.982 568.753C638.023 562.787 628.285 553.39 619.83 540.349L613.117 544.701ZM645.46 575.928C658.735 581.764 674.861 584.594 693.693 584.594V576.594C675.615 576.594 660.659 573.871 648.68 568.604L645.46 575.928ZM693.693 584.594H751.972V576.594H693.693V584.594ZM751.972 584.594C770.785 584.594 786.486 581.771 798.858 575.877L795.418 568.655C784.479 573.865 770.07 576.594 751.972 576.594V584.594ZM798.934 575.84C812.28 569.135 823.474 558.697 832.548 544.701L825.836 540.349C817.426 553.319 807.251 562.708 795.342 568.692L798.934 575.84ZM832.526 544.735L918.487 415.065L911.82 410.645L825.858 540.315L832.526 544.735ZM911.154 412.855V831.607H919.154V412.855H911.154ZM911.154 831.607C911.154 847.306 915.206 859.689 924.103 867.862L929.515 861.971C922.872 855.868 919.154 846.045 919.154 831.607H911.154ZM924.46 868.154C934.219 875.236 948.842 878.433 967.605 878.433V870.433C949.457 870.433 936.884 867.286 929.159 861.679L924.46 868.154ZM967.605 878.433H1191.98V870.433H967.605V878.433ZM1191.98 878.433C1210.68 878.433 1224.97 875.263 1233.85 868.015L1228.79 861.818C1222.12 867.26 1210.19 870.433 1191.98 870.433V878.433ZM1233.85 868.015C1243.81 859.882 1248.43 847.447 1248.43 831.607H1240.43C1240.43 845.904 1236.31 855.675 1228.79 861.818L1233.85 868.015ZM1248.43 831.607V60.7232H1240.43V831.607H1248.43ZM1248.43 60.7232C1248.43 44.9163 1243.82 32.7335 1233.67 25.3658L1228.97 31.8403C1236.3 37.1621 1240.43 46.3927 1240.43 60.7232H1248.43ZM1234.02 25.6572C1225.13 17.4882 1210.75 13.8963 1191.98 13.8963V21.8963C1210.12 21.8963 1221.96 25.4422 1228.61 31.5489L1234.02 25.6572ZM1191.98 13.8963H955.949V21.8963H1191.98V13.8963ZM955.949 13.8963C939.947 13.8963 926.162 16.7532 914.766 22.6743L918.455 29.7732C928.428 24.5911 940.869 21.8963 955.949 21.8963V13.8963ZM914.626 22.751C904.233 28.6909 894.595 38.3082 885.634 51.3161L892.222 55.8546C900.744 43.4837 909.561 34.8599 918.595 29.6965L914.626 22.751ZM885.603 51.3618L755.932 245.272L762.582 249.719L892.253 55.8089L885.603 51.3618ZM755.95 245.246C751.178 252.259 747.062 257.048 743.614 259.863L748.674 266.06C752.997 262.53 757.623 257.008 762.564 249.746L755.95 245.246ZM743.198 260.255C741.282 262.342 738.151 263.72 733.031 263.72V271.72C739.567 271.72 745.179 269.925 749.09 265.667L743.198 260.255ZM733.031 263.72H719.919V271.72H733.031V263.72ZM719.919 263.72C714.856 263.72 710.937 262.36 707.879 259.863L702.819 266.06C707.531 269.907 713.325 271.72 719.919 271.72V263.72ZM708.295 260.255C705.585 257.306 701.833 252.349 697 245.246L690.386 249.746C695.266 256.919 699.284 262.272 702.403 265.667L708.295 260.255ZM697.006 245.255L565.879 51.3447L559.252 55.826L690.379 249.737L697.006 245.255ZM565.859 51.3161C556.847 38.2346 546.675 28.6004 535.27 22.6743L531.581 29.7732C541.545 34.9504 550.799 43.5573 559.271 55.8546L565.859 51.3161ZM535.41 22.751C524.903 16.7452 511.524 13.8963 495.544 13.8963V21.8963C510.647 21.8963 522.522 24.5991 531.441 29.6965L535.41 22.751ZM495.544 13.8963H260.971V21.8963H495.544V13.8963ZM260.971 13.8963C242.137 13.8963 227.432 17.5141 217.646 25.5047L222.705 31.7014C230.403 25.4164 242.895 21.8963 260.971 21.8963V13.8963ZM217.646 25.5047C208.555 32.9276 204.52 45.0689 204.52 60.7232H212.52C212.52 46.2401 216.255 36.968 222.705 31.7014L217.646 25.5047ZM204.52 60.7232V831.607H212.52V60.7232H204.52ZM204.52 831.607C204.52 847.306 208.572 859.689 217.47 867.862L222.882 861.971C216.238 855.868 212.52 846.045 212.52 831.607H204.52ZM217.826 868.154C227.585 875.236 242.208 878.433 260.971 878.433V870.433C242.823 870.433 230.25 867.286 222.525 861.679L217.826 868.154ZM260.971 878.433H478.06V870.433H260.971V878.433ZM522.438 872.313L333.031 1000.79L337.522 1007.41L526.929 878.933L522.438 872.313ZM332.747 1001.01C329.517 1003.64 323.853 1006.24 315.286 1008.57L317.387 1016.29C326.303 1013.86 333.266 1010.91 337.807 1007.2L332.747 1001.01ZM315.165 1008.61C307.84 1010.85 299.502 1012 290.11 1012V1020C300.146 1020 309.291 1018.77 317.507 1016.26L315.165 1008.61ZM290.11 1012H73.0209V1020H290.11V1012ZM73.0209 1012C50.0499 1012 34.1787 1007.67 24.5566 999.816L19.4969 1006.01C31.2437 1015.6 49.3688 1020 73.0209 1020V1012ZM24.5566 999.816C15.1203 992.111 10 979.591 10 961.277H2C2 981.031 7.56417 996.269 19.4969 1006.01L24.5566 999.816ZM10 961.277V190.393H2V961.277H10ZM10 190.393C10 180.437 11.4102 172.259 14.0742 165.733L6.66764 162.71C3.50379 170.46 2 179.73 2 190.393H10ZM13.8842 166.134C17.4674 159.551 22.3875 154.066 28.6912 149.654L24.1041 143.1C16.8094 148.205 11.045 154.616 6.85768 162.309L13.8842 166.134ZM28.6692 149.669L216.619 19.9992L212.076 13.4143L24.1262 143.084L28.6692 149.669ZM216.535 20.0556C220.845 17.2402 226.643 15.008 234.088 13.488L232.488 5.64968C224.393 7.30216 217.563 9.82852 212.16 13.3579L216.535 20.0556ZM234.339 13.4285C242.715 11.1489 251.587 10 260.971 10V2C250.928 2 241.346 3.23037 232.238 5.70925L234.339 13.4285ZM260.971 10H495.544V2H260.971V10ZM495.544 10C513.578 10 527.914 13.1054 538.798 19.0303L542.623 12.0038C530.196 5.23928 514.42 2 495.544 2V10ZM538.915 19.0912C550.805 25.0657 561.997 35.2574 572.415 49.9508L578.941 45.3235C567.99 29.8795 555.87 18.6578 542.506 11.9429L538.915 19.0912ZM572.349 49.855L671.423 198.559L678.081 194.124L579.007 45.4193L572.349 49.855ZM678.046 198.611L691.159 179.577L684.571 175.038L671.458 194.072L678.046 198.611ZM691.142 179.601C694.977 174.122 698.803 169.047 702.619 164.372L696.423 159.312C692.469 164.155 688.524 169.389 684.588 175.014L691.142 179.601ZM702.532 164.476C707.209 159.128 711.797 155.032 716.278 152.105L711.903 145.407C706.671 148.825 701.546 153.453 696.51 159.208L702.532 164.476ZM716.348 152.058L904.298 23.5778L899.783 16.9734L711.833 145.454L716.348 152.058ZM904.13 23.6868C911.647 19.0833 919.111 15.6631 926.524 13.3936L924.181 5.74413C916.052 8.23314 907.975 11.9508 899.952 16.8644L904.13 23.6868ZM926.403 13.4285C934.721 11.1646 944.552 10 955.949 10V2C944.034 2 933.468 3.21465 924.302 5.70925L926.403 13.4285ZM955.949 10H1191.98V2H955.949V10ZM1191.98 10C1214.95 10 1230.82 14.3278 1240.44 22.1843L1245.5 15.9876C1233.76 6.39621 1215.63 2 1191.98 2V10ZM1240.44 22.1843C1249.88 29.8891 1255 42.4088 1255 60.7232H1263C1263 40.9693 1257.44 25.7308 1245.5 15.9876L1240.44 22.1843ZM1255 60.7232V831.607H1263V60.7232H1255ZM1255 831.607C1255 841.424 1253.15 849.452 1249.66 855.866L1256.69 859.691C1260.96 851.829 1263 842.409 1263 831.607H1255ZM1249.47 856.267C1246.87 862.638 1242.53 867.993 1236.31 872.346L1240.9 878.9C1248.27 873.736 1253.65 867.195 1256.88 859.29L1249.47 856.267ZM1236.36 872.313L1046.95 1000.79L1051.44 1007.41L1240.85 878.933L1236.36 872.313ZM1046.67 1001.01C1043.44 1003.64 1037.77 1006.24 1029.2 1008.57L1031.31 1016.29C1040.22 1013.86 1047.19 1010.91 1051.73 1007.2L1046.67 1001.01ZM1029.08 1008.61C1021.76 1010.85 1013.42 1012 1004.03 1012V1020C1014.06 1020 1023.21 1018.77 1031.43 1016.26L1029.08 1008.61ZM1004.03 1012H779.655V1020H1004.03V1012ZM779.655 1012C755.664 1012 739.334 1007.65 729.733 999.816L724.674 1006.01C736.442 1015.62 755.079 1020 779.655 1020V1012ZM729.876 999.938C721.334 992.266 716.634 979.704 716.634 961.277H708.634C708.634 980.918 713.647 996.114 724.531 1005.89L729.876 999.938ZM716.634 961.277V647.213H708.634V961.277H716.634ZM710.389 643.903L624.427 702.195L628.917 708.816L714.879 650.524L710.389 643.903ZM624.347 702.251C616.992 707.506 608.18 711.69 597.851 714.757L600.128 722.426C611.168 719.148 620.812 714.608 628.997 708.76L624.347 702.251ZM598.038 714.706C588.725 716.987 577.406 718.16 564.022 718.16V726.16C577.835 726.16 589.828 724.954 599.941 722.476L598.038 714.706ZM564.022 718.16H545.081V726.16H564.022V718.16ZM541.081 722.16V831.607H549.081V722.16H541.081ZM541.081 831.607C541.081 841.424 539.232 849.452 535.74 855.866L542.767 859.691C547.046 851.829 549.081 842.409 549.081 831.607H541.081ZM535.55 856.267C532.949 862.638 528.61 867.993 522.39 872.346L526.977 878.9C534.356 873.736 539.73 867.195 542.957 859.29L535.55 856.267Z" fill="black" mask="url(#path-1-outside-1_21_52)"/>
<path d="M517.399 864.916L519.929 868.015L519.929 868.015L517.399 864.916ZM530.512 412.855L533.846 410.645L526.512 399.582V412.855H530.512ZM616.473 542.525L619.83 540.349L619.818 540.332L619.807 540.315L616.473 542.525ZM647.07 572.266L645.157 575.779L645.305 575.86L645.46 575.928L647.07 572.266ZM797.138 572.266L798.858 575.877L798.897 575.859L798.934 575.84L797.138 572.266ZM829.192 542.525L825.858 540.315L825.847 540.332L825.836 540.349L829.192 542.525ZM915.154 412.855H919.154V399.582L911.82 410.645L915.154 412.855ZM926.809 864.916L924.103 867.862L924.273 868.018L924.46 868.154L926.809 864.916ZM1231.32 864.916L1233.85 868.015L1233.85 868.015L1231.32 864.916ZM1231.32 28.6031L1228.61 31.5489L1228.78 31.7049L1228.97 31.8403L1231.32 28.6031ZM916.61 26.2237L914.766 22.6743L914.695 22.7112L914.626 22.751L916.61 26.2237ZM888.928 53.5853L885.634 51.3161L885.618 51.3388L885.603 51.3618L888.928 53.5853ZM759.257 247.496L762.564 249.746L762.573 249.733L762.582 249.719L759.257 247.496ZM746.144 262.961L743.614 259.863L743.392 260.044L743.198 260.255L746.144 262.961ZM705.349 262.961L702.403 265.667L702.597 265.878L702.819 266.06L705.349 262.961ZM693.693 247.496L690.379 249.737L690.386 249.746L693.693 247.496ZM562.565 53.5853L565.879 51.3447L565.869 51.3303L565.859 51.3161L562.565 53.5853ZM533.426 26.2237L531.441 29.6965L531.51 29.7363L531.581 29.7732L533.426 26.2237ZM220.176 28.6031L217.646 25.5047L217.646 25.5047L220.176 28.6031ZM220.176 864.916L217.47 867.862L217.639 868.018L217.826 868.154L220.176 864.916ZM524.684 875.623L526.929 878.933L526.953 878.917L526.977 878.9L524.684 875.623ZM335.277 1004.1L333.031 1000.79L332.884 1000.89L332.747 1001.01L335.277 1004.1ZM316.336 1012.43L315.286 1008.57L315.225 1008.59L315.165 1008.61L316.336 1012.43ZM10.3709 164.221L6.85768 162.309L6.75154 162.504L6.66764 162.71L10.3709 164.221ZM26.3977 146.377L24.1262 143.084L24.1151 143.092L24.1041 143.1L26.3977 146.377ZM214.348 16.7067L212.16 13.3579L212.118 13.3855L212.076 13.4143L214.348 16.7067ZM233.288 9.56886L234.088 13.488L234.215 13.4623L234.339 13.4285L233.288 9.56886ZM540.711 15.517L538.798 19.0303L538.856 19.0617L538.915 19.0912L540.711 15.517ZM575.678 47.6372L579.007 45.4193L578.975 45.371L578.941 45.3235L575.678 47.6372ZM674.752 196.342L671.423 198.559L674.697 203.473L678.046 198.611L674.752 196.342ZM687.865 177.307L684.588 175.014L684.579 175.026L684.571 175.038L687.865 177.307ZM699.521 161.842L696.51 159.208L696.466 159.26L696.423 159.312L699.521 161.842ZM714.091 148.756L716.278 152.105L716.313 152.082L716.348 152.058L714.091 148.756ZM902.041 20.2756L899.952 16.8644L899.866 16.9168L899.783 16.9734L902.041 20.2756ZM925.352 9.56886L924.302 5.70925L924.241 5.72575L924.181 5.74413L925.352 9.56886ZM1242.97 19.086L1245.5 15.9876L1245.5 15.9876L1242.97 19.086ZM1253.17 857.779L1249.66 855.866L1249.55 856.061L1249.47 856.267L1253.17 857.779ZM1238.6 875.623L1240.85 878.933L1240.87 878.917L1240.9 878.9L1238.6 875.623ZM1049.2 1004.1L1046.95 1000.79L1046.8 1000.89L1046.67 1001.01L1049.2 1004.1ZM1030.25 1012.43L1029.2 1008.57L1029.14 1008.59L1029.08 1008.61L1030.25 1012.43ZM727.204 1002.91L724.531 1005.89L724.601 1005.95L724.674 1006.01L727.204 1002.91ZM712.634 647.213H716.634V639.668L710.389 643.903L712.634 647.213ZM626.672 705.505L624.427 702.195L624.387 702.222L624.347 702.251L626.672 705.505ZM598.99 718.591L599.941 722.476L600.035 722.453L600.128 722.426L598.99 718.591ZM545.081 722.16V718.16H541.081V722.16H545.081ZM539.253 857.779L535.74 855.866L535.634 856.061L535.55 856.267L539.253 857.779ZM478.06 878.433C496.757 878.433 511.052 875.263 519.929 868.015L514.869 861.818C508.205 867.26 496.274 870.433 478.06 870.433V878.433ZM519.929 868.015C529.889 859.882 534.512 847.447 534.512 831.607H526.512C526.512 845.904 522.392 855.675 514.869 861.818L519.929 868.015ZM534.512 831.607V412.855H526.512V831.607H534.512ZM527.178 415.065L613.139 544.735L619.807 540.315L533.846 410.645L527.178 415.065ZM613.117 544.701C622.145 558.626 632.805 569.056 645.157 575.779L648.982 568.753C638.023 562.787 628.285 553.39 619.83 540.349L613.117 544.701ZM645.46 575.928C658.735 581.764 674.861 584.594 693.693 584.594V576.594C675.615 576.594 660.659 573.871 648.68 568.604L645.46 575.928ZM693.693 584.594H751.972V576.594H693.693V584.594ZM751.972 584.594C770.785 584.594 786.486 581.771 798.858 575.877L795.418 568.655C784.479 573.865 770.07 576.594 751.972 576.594V584.594ZM798.934 575.84C812.28 569.135 823.474 558.697 832.548 544.701L825.836 540.349C817.426 553.319 807.251 562.708 795.342 568.692L798.934 575.84ZM832.526 544.735L918.487 415.065L911.82 410.645L825.858 540.315L832.526 544.735ZM911.154 412.855V831.607H919.154V412.855H911.154ZM911.154 831.607C911.154 847.306 915.206 859.689 924.103 867.862L929.515 861.971C922.872 855.868 919.154 846.045 919.154 831.607H911.154ZM924.46 868.154C934.219 875.236 948.842 878.433 967.605 878.433V870.433C949.457 870.433 936.884 867.286 929.159 861.679L924.46 868.154ZM967.605 878.433H1191.98V870.433H967.605V878.433ZM1191.98 878.433C1210.68 878.433 1224.97 875.263 1233.85 868.015L1228.79 861.818C1222.12 867.26 1210.19 870.433 1191.98 870.433V878.433ZM1233.85 868.015C1243.81 859.882 1248.43 847.447 1248.43 831.607H1240.43C1240.43 845.904 1236.31 855.675 1228.79 861.818L1233.85 868.015ZM1248.43 831.607V60.7232H1240.43V831.607H1248.43ZM1248.43 60.7232C1248.43 44.9163 1243.82 32.7335 1233.67 25.3658L1228.97 31.8403C1236.3 37.1621 1240.43 46.3927 1240.43 60.7232H1248.43ZM1234.02 25.6572C1225.13 17.4882 1210.75 13.8963 1191.98 13.8963V21.8963C1210.12 21.8963 1221.96 25.4422 1228.61 31.5489L1234.02 25.6572ZM1191.98 13.8963H955.949V21.8963H1191.98V13.8963ZM955.949 13.8963C939.947 13.8963 926.162 16.7532 914.766 22.6743L918.455 29.7732C928.428 24.5911 940.869 21.8963 955.949 21.8963V13.8963ZM914.626 22.751C904.233 28.6909 894.595 38.3082 885.634 51.3161L892.222 55.8546C900.744 43.4837 909.561 34.8599 918.595 29.6965L914.626 22.751ZM885.603 51.3618L755.932 245.272L762.582 249.719L892.253 55.8089L885.603 51.3618ZM755.95 245.246C751.178 252.259 747.062 257.048 743.614 259.863L748.674 266.06C752.997 262.53 757.623 257.008 762.564 249.746L755.95 245.246ZM743.198 260.255C741.282 262.342 738.151 263.72 733.031 263.72V271.72C739.567 271.72 745.179 269.925 749.09 265.667L743.198 260.255ZM733.031 263.72H719.919V271.72H733.031V263.72ZM719.919 263.72C714.856 263.72 710.937 262.36 707.879 259.863L702.819 266.06C707.531 269.907 713.325 271.72 719.919 271.72V263.72ZM708.295 260.255C705.585 257.306 701.833 252.349 697 245.246L690.386 249.746C695.266 256.919 699.284 262.272 702.403 265.667L708.295 260.255ZM697.006 245.255L565.879 51.3447L559.252 55.826L690.379 249.737L697.006 245.255ZM565.859 51.3161C556.847 38.2346 546.675 28.6004 535.27 22.6743L531.581 29.7732C541.545 34.9504 550.799 43.5573 559.271 55.8546L565.859 51.3161ZM535.41 22.751C524.903 16.7452 511.524 13.8963 495.544 13.8963V21.8963C510.647 21.8963 522.522 24.5991 531.441 29.6965L535.41 22.751ZM495.544 13.8963H260.971V21.8963H495.544V13.8963ZM260.971 13.8963C242.137 13.8963 227.432 17.5141 217.646 25.5047L222.705 31.7014C230.403 25.4164 242.895 21.8963 260.971 21.8963V13.8963ZM217.646 25.5047C208.555 32.9276 204.52 45.0689 204.52 60.7232H212.52C212.52 46.2401 216.255 36.968 222.705 31.7014L217.646 25.5047ZM204.52 60.7232V831.607H212.52V60.7232H204.52ZM204.52 831.607C204.52 847.306 208.572 859.689 217.47 867.862L222.882 861.971C216.238 855.868 212.52 846.045 212.52 831.607H204.52ZM217.826 868.154C227.585 875.236 242.208 878.433 260.971 878.433V870.433C242.823 870.433 230.25 867.286 222.525 861.679L217.826 868.154ZM260.971 878.433H478.06V870.433H260.971V878.433ZM522.438 872.313L333.031 1000.79L337.522 1007.41L526.929 878.933L522.438 872.313ZM332.747 1001.01C329.517 1003.64 323.853 1006.24 315.286 1008.57L317.387 1016.29C326.303 1013.86 333.266 1010.91 337.807 1007.2L332.747 1001.01ZM315.165 1008.61C307.84 1010.85 299.502 1012 290.11 1012V1020C300.146 1020 309.291 1018.77 317.507 1016.26L315.165 1008.61ZM290.11 1012H73.0209V1020H290.11V1012ZM73.0209 1012C50.0499 1012 34.1787 1007.67 24.5566 999.816L19.4969 1006.01C31.2437 1015.6 49.3688 1020 73.0209 1020V1012ZM24.5566 999.816C15.1203 992.111 10 979.591 10 961.277H2C2 981.031 7.56417 996.269 19.4969 1006.01L24.5566 999.816ZM10 961.277V190.393H2V961.277H10ZM10 190.393C10 180.437 11.4102 172.259 14.0742 165.733L6.66764 162.71C3.50379 170.46 2 179.73 2 190.393H10ZM13.8842 166.134C17.4674 159.551 22.3875 154.066 28.6912 149.654L24.1041 143.1C16.8094 148.205 11.045 154.616 6.85768 162.309L13.8842 166.134ZM28.6692 149.669L216.619 19.9992L212.076 13.4143L24.1262 143.084L28.6692 149.669ZM216.535 20.0556C220.845 17.2402 226.643 15.008 234.088 13.488L232.488 5.64968C224.393 7.30216 217.563 9.82852 212.16 13.3579L216.535 20.0556ZM234.339 13.4285C242.715 11.1489 251.587 10 260.971 10V2C250.928 2 241.346 3.23037 232.238 5.70925L234.339 13.4285ZM260.971 10H495.544V2H260.971V10ZM495.544 10C513.578 10 527.914 13.1054 538.798 19.0303L542.623 12.0038C530.196 5.23928 514.42 2 495.544 2V10ZM538.915 19.0912C550.805 25.0657 561.997 35.2574 572.415 49.9508L578.941 45.3235C567.99 29.8795 555.87 18.6578 542.506 11.9429L538.915 19.0912ZM572.349 49.855L671.423 198.559L678.081 194.124L579.007 45.4193L572.349 49.855ZM678.046 198.611L691.159 179.577L684.571 175.038L671.458 194.072L678.046 198.611ZM691.142 179.601C694.977 174.122 698.803 169.047 702.619 164.372L696.423 159.312C692.469 164.155 688.524 169.389 684.588 175.014L691.142 179.601ZM702.532 164.476C707.209 159.128 711.797 155.032 716.278 152.105L711.903 145.407C706.671 148.825 701.546 153.453 696.51 159.208L702.532 164.476ZM716.348 152.058L904.298 23.5778L899.783 16.9734L711.833 145.454L716.348 152.058ZM904.13 23.6868C911.647 19.0833 919.111 15.6631 926.524 13.3936L924.181 5.74413C916.052 8.23314 907.975 11.9508 899.952 16.8644L904.13 23.6868ZM926.403 13.4285C934.721 11.1646 944.552 10 955.949 10V2C944.034 2 933.468 3.21465 924.302 5.70925L926.403 13.4285ZM955.949 10H1191.98V2H955.949V10ZM1191.98 10C1214.95 10 1230.82 14.3278 1240.44 22.1843L1245.5 15.9876C1233.76 6.39621 1215.63 2 1191.98 2V10ZM1240.44 22.1843C1249.88 29.8891 1255 42.4088 1255 60.7232H1263C1263 40.9693 1257.44 25.7308 1245.5 15.9876L1240.44 22.1843ZM1255 60.7232V831.607H1263V60.7232H1255ZM1255 831.607C1255 841.424 1253.15 849.452 1249.66 855.866L1256.69 859.691C1260.96 851.829 1263 842.409 1263 831.607H1255ZM1249.47 856.267C1246.87 862.638 1242.53 867.993 1236.31 872.346L1240.9 878.9C1248.27 873.736 1253.65 867.195 1256.88 859.29L1249.47 856.267ZM1236.36 872.313L1046.95 1000.79L1051.44 1007.41L1240.85 878.933L1236.36 872.313ZM1046.67 1001.01C1043.44 1003.64 1037.77 1006.24 1029.2 1008.57L1031.31 1016.29C1040.22 1013.86 1047.19 1010.91 1051.73 1007.2L1046.67 1001.01ZM1029.08 1008.61C1021.76 1010.85 1013.42 1012 1004.03 1012V1020C1014.06 1020 1023.21 1018.77 1031.43 1016.26L1029.08 1008.61ZM1004.03 1012H779.655V1020H1004.03V1012ZM779.655 1012C755.664 1012 739.334 1007.65 729.733 999.816L724.674 1006.01C736.442 1015.62 755.079 1020 779.655 1020V1012ZM729.876 999.938C721.334 992.266 716.634 979.704 716.634 961.277H708.634C708.634 980.918 713.647 996.114 724.531 1005.89L729.876 999.938ZM716.634 961.277V647.213H708.634V961.277H716.634ZM710.389 643.903L624.427 702.195L628.917 708.816L714.879 650.524L710.389 643.903ZM624.347 702.251C616.992 707.506 608.18 711.69 597.851 714.757L600.128 722.426C611.168 719.148 620.812 714.608 628.997 708.76L624.347 702.251ZM598.038 714.706C588.725 716.987 577.406 718.16 564.022 718.16V726.16C577.835 726.16 589.828 724.954 599.941 722.476L598.038 714.706ZM564.022 718.16H545.081V726.16H564.022V718.16ZM541.081 722.16V831.607H549.081V722.16H541.081ZM541.081 831.607C541.081 841.424 539.232 849.452 535.74 855.866L542.767 859.691C547.046 851.829 549.081 842.409 549.081 831.607H541.081ZM535.55 856.267C532.949 862.638 528.61 867.993 522.39 872.346L526.977 878.9C534.356 873.736 539.73 867.195 542.957 859.29L535.55 856.267Z" fill="black" fill-opacity="0.2" mask="url(#path-1-outside-1_21_52)"/>
</g>
<defs>
<filter id="filter0_di_21_52" x="0" y="0" width="1269" height="1026" filterUnits="userSpaceOnUse" color-interpolation-filters="sRGB">
<feFlood flood-opacity="0" result="BackgroundImageFix"/>
<feColorMatrix in="SourceAlpha" type="matrix" values="0 0 0 0 0 0 0 0 0 0 0 0 0 0 0 0 0 0 127 0" result="hardAlpha"/>
<feOffset dx="2" dy="2"/>
<feGaussianBlur stdDeviation="2"/>
<feComposite in2="hardAlpha" operator="out"/>
<feColorMatrix type="matrix" values="0 0 0 0 0 0 0 0 0 0 0 0 0 0 0 0 0 0 0.25 0"/>
<feBlend mode="normal" in2="BackgroundImageFix" result="effect1_dropShadow_21_52"/>
<feBlend mode="normal" in="SourceGraphic" in2="effect1_dropShadow_21_52" result="shape"/>
<feColorMatrix in="SourceAlpha" type="matrix" values="0 0 0 0 0 0 0 0 0 0 0 0 0 0 0 0 0 0 127 0" result="hardAlpha"/>
<feOffset dx="-2" dy="-2"/>
<feGaussianBlur stdDeviation="2"/>
<feComposite in2="hardAlpha" operator="arithmetic" k2="-1" k3="1"/>
<feColorMatrix type="matrix" values="0 0 0 0 0 0 0 0 0 0 0 0 0 0 0 0 0 0 0.25 0"/>
<feBlend mode="normal" in2="shape" result="effect2_innerShadow_21_52"/>
</filter>
</defs>
</svg>
